<svg xmlns="http://www.w3.org/2000/svg" viewBox="0 0 1600 900" width="1600" height="900" role="img">
  <defs>
    <radialGradient id="glow" cx="50%" cy="46%" r="62%">
      <stop offset="0%" stop-color="#7456ff" stop-opacity="0.30"/>
      <stop offset="55%" stop-color="#7456ff" stop-opacity="0.07"/>
      <stop offset="100%" stop-color="#04050c" stop-opacity="0"/>
    </radialGradient>
    <linearGradient id="rail" x1="0" y1="0" x2="1" y2="0">
      <stop offset="0%" stop-color="#7456ff" stop-opacity="0"/>
      <stop offset="45%" stop-color="#7456ff" stop-opacity="0.85"/>
      <stop offset="100%" stop-color="#7456ff" stop-opacity="0"/>
    </linearGradient>
    <linearGradient id="vignette" x1="0" y1="0" x2="0" y2="1">
      <stop offset="0%" stop-color="#04050c" stop-opacity="0.7"/>
      <stop offset="45%" stop-color="#04050c" stop-opacity="0"/>
      <stop offset="100%" stop-color="#04050c" stop-opacity="0.85"/>
    </linearGradient>
    <filter id="grain">
      <feTurbulence type="fractalNoise" baseFrequency="0.9" numOctaves="3" seed="21"/>
      <feColorMatrix type="saturate" values="0"/>
    </filter>
  </defs>
  <rect width="1600" height="900" fill="#070814"/>
  <rect width="1600" height="900" fill="url(#glow)"/>
  <rect x="460" y="200" width="680" height="500" fill="none" stroke="#f4f1ea" stroke-opacity="0.18"/><line x1="540" y1="270" x2="540" y2="630" stroke="#28b7ff" stroke-opacity="0.35" stroke-width="1"/><line x1="540" y1="270" x2="1060" y2="270" stroke="#28b7ff" stroke-opacity="0.2" stroke-width="1"/><line x1="605" y1="270" x2="605" y2="630" stroke="#28b7ff" stroke-opacity="0.35" stroke-width="1"/><line x1="540" y1="315" x2="1060" y2="315" stroke="#28b7ff" stroke-opacity="0.2" stroke-width="1"/><line x1="670" y1="270" x2="670" y2="630" stroke="#28b7ff" stroke-opacity="0.35" stroke-width="1"/><line x1="540" y1="360" x2="1060" y2="360" stroke="#28b7ff" stroke-opacity="0.2" stroke-width="1"/><line x1="735" y1="270" x2="735" y2="630" stroke="#28b7ff" stroke-opacity="0.35" stroke-width="1"/><line x1="540" y1="405" x2="1060" y2="405" stroke="#28b7ff" stroke-opacity="0.2" stroke-width="1"/><line x1="800" y1="270" x2="800" y2="630" stroke="#28b7ff" stroke-opacity="0.35" stroke-width="1"/><line x1="540" y1="450" x2="1060" y2="450" stroke="#28b7ff" stroke-opacity="0.2" stroke-width="1"/><line x1="865" y1="270" x2="865" y2="630" stroke="#28b7ff" stroke-opacity="0.35" stroke-width="1"/><line x1="540" y1="495" x2="1060" y2="495" stroke="#28b7ff" stroke-opacity="0.2" stroke-width="1"/><line x1="930" y1="270" x2="930" y2="630" stroke="#28b7ff" stroke-opacity="0.35" stroke-width="1"/><line x1="540" y1="540" x2="1060" y2="540" stroke="#28b7ff" stroke-opacity="0.2" stroke-width="1"/><line x1="995" y1="270" x2="995" y2="630" stroke="#28b7ff" stroke-opacity="0.35" stroke-width="1"/><line x1="540" y1="585" x2="1060" y2="585" stroke="#28b7ff" stroke-opacity="0.2" stroke-width="1"/><line x1="1060" y1="270" x2="1060" y2="630" stroke="#28b7ff" stroke-opacity="0.35" stroke-width="1"/><line x1="540" y1="630" x2="1060" y2="630" stroke="#28b7ff" stroke-opacity="0.2" stroke-width="1"/><circle cx="762.2" cy="463.4" r="2" fill="#f4f1ea" opacity="0.3"/><circle cx="541.9" cy="556.2" r="2" fill="#f4f1ea" opacity="0.3"/><circle cx="949.1" cy="182.3" r="2" fill="#f4f1ea" opacity="0.3"/><circle cx="938.7" cy="589.4" r="2" fill="#f4f1ea" opacity="0.3"/><circle cx="1457.9" cy="179.9" r="2" fill="#f4f1ea" opacity="0.3"/><circle cx="170.6" cy="289.0" r="2" fill="#f4f1ea" opacity="0.3"/><circle cx="428.5" cy="10.8" r="2" fill="#f4f1ea" opacity="0.3"/><circle cx="910.9" cy="444.4" r="2" fill="#f4f1ea" opacity="0.3"/><circle cx="1061.4" cy="662.3" r="2" fill="#f4f1ea" opacity="0.3"/><circle cx="810.0" cy="403.9" r="2" fill="#f4f1ea" opacity="0.3"/>
  <rect width="1600" height="900" fill="url(#vignette)"/>
  <rect width="1600" height="900" filter="url(#grain)" opacity="0.05" style="mix-blend-mode:overlay"/>
</svg>
